<svg xmlns="http://www.w3.org/2000/svg" width="512" height="320" viewBox="0 0 512 320" role="img"><title>FnWave 函数波</title><g transform="translate(21 28)"><path fill="#FAF6EE" d="M0 242 C47 234 70 201 94 140 L129 56 C151 6 199 -12 240 20 L249 33 C210 17 178 34 160 72 L127 149 C99 219 63 258 0 251 Z M68 110 L150 110 C185 110 205 140 226 181 C242 213 250 223 261 205 L289 164 C309 135 323 143 342 178 L365 211 C375 224 384 204 398 175 L432 110 L470 110 L419 217 C391 273 364 266 339 226 L316 188 C311 180 307 180 301 190 L275 232 C247 275 216 244 196 205 L171 160 C161 141 150 134 132 134 L58 134 Z"/></g></svg>